<svg fill="#ffffff" viewBox="0 0 50 50" width="100px" height="100px">
	<path d="m 49.085665,13.383046 c 0.502087,-0.58578 0.913534,-1.168755 0.914332,-1.295501 C 50.000894,11.9608 49.774421,11.668397 49.496951,11.437761 49.038614,11.05679 45.770233,8.1300905 44.396535,6.8705485 43.514047,6.0613945 41.281441,5.0859095 39.687237,4.8129275 38.885639,4.6756685 36.564939,4.5928585 34.530128,4.6289045 l -3.699659,0.06554 v 3.139108 l 4.148106,0.131417 c 5.632496,0.178445 5.927834,0.297799 10.276862,4.1530915 1.438748,1.275407 2.683722,2.321423 2.766622,2.32448 0.08288,0.003 0.561523,-0.473714 1.063606,-1.059495 z M 4.4203503,12.71038 c 1.202401,-1.079068 2.389768,-2.147057 2.638597,-2.37331 0.753784,-0.6853738 2.356386,-1.5541215 3.6607517,-1.9844345 0.976275,-0.322075 1.953405,-0.406973 4.684078,-0.406973 h 3.450457 l -0.06585,-1.625609 -0.06585,-1.62561 -3.64583,-0.06162 c -2.768494,-0.0468 -3.982522,0.0245 -5.04499,0.296275 -1.6115937,0.41223 -3.4571937,1.38668 -4.6246967,2.44177 -0.44576,0.402842 -1.844703,1.6651661 -3.108747,2.8051615 C 1.0342241,11.316029 7.2285495e-8,12.361412 7.2285495e-8,12.499107 7.2285495e-8,12.781654 1.7927701,14.672323 2.0606933,14.672323 c 0.09545,0 1.157324,-0.882875 2.359716,-1.961943 z M 22.982712,31.967838 c -3.1575,-0.828857 -5.465124,-4.120989 -5.224117,-7.45289 0.120356,-1.663916 1.252053,-3.984934 2.373107,-4.867066 1.677991,-1.320364 2.699062,-1.691603 4.64479,-1.688742 1.423102,0.0021 2.025438,0.113063 2.914883,0.537012 5.409769,2.578549 5.556709,10.204839 0.248931,12.919938 -1.181859,0.604557 -3.692142,0.883935 -4.957594,0.551748 z m 9.549214,5.187067 C 33.030958,36.84455 33.958478,35.737631 34.974414,34.240019 41.581973,24.4996 45.526759,18.457213 45.405904,18.261669 45.267693,18.038039 43.469438,16.54866 40.741409,14.39836 38.27699,12.45585 39.026791,12.542407 24.664373,12.542407 H 11.995837 l -1.279672,0.672666 c -1.5667627,0.823577 -6.4559917,4.7784 -6.4559917,5.222154 0,0.17669 0.788208,1.495584 1.751567,2.93088 10.9261307,16.278629 10.5747847,15.797569 11.8082447,16.167668 0.373057,0.111934 3.654837,0.184613 7.292835,0.161507 6.416425,-0.04075 6.638652,-0.057 7.419106,-0.542377 z M 16.816609,43.383093 V 41.823701 L 15.975774,41.670855 C 14.879338,41.471548 13.242635,40.640487 12.637392,39.975743 12.37364,39.68606 11.191112,37.960775 10.009559,36.141774 8.8280053,34.322772 7.7391553,32.834498 7.5898843,32.834498 c -0.368107,0 -2.419809,1.405779 -2.427038,1.662959 -0.0051,0.190384 1.473857,2.539904 4.404325,6.995646 1.7191857,2.614014 3.0225687,3.409926 5.6238267,3.434209 l 1.625611,0.01517 z m 19.031529,1.65885 c 0.648293,-0.192521 1.546162,-0.685485 2.002642,-1.099529 0.455108,-0.4128 2.138727,-2.687974 3.741371,-5.055939 l 2.9139,-4.305399 -0.895902,-0.759267 c -1.096029,-0.928876 -1.643661,-1.127738 -2.010481,-0.730078 -0.153889,0.166828 -1.267553,1.766371 -2.47481,3.554542 -1.207256,1.78817 -2.383275,3.461097 -2.613376,3.717619 -0.543099,0.605451 -2.327293,1.492944 -3.326669,1.654746 l -0.784776,0.127058 -0.06771,1.434034 c -0.04695,0.995483 0.02161,1.490656 0.224219,1.619184 0.465777,0.295435 2.017303,0.221444 3.29156,-0.156971 z" />
</svg>
